<svg width="348" height="151" viewBox="0 0 348 151" fill="none" xmlns="http://www.w3.org/2000/svg">
<path d="M0.460228 85.1648V69.2557L94.7784 23.517V45.179L25.1761 76.9261L25.8153 75.6477V78.7017L25.1761 77.4943L94.7784 109.17V130.903L0.460228 85.1648ZM204.916 40.8466C204.158 34.1231 201.033 28.9148 195.541 25.2216C190.048 21.4811 183.135 19.6108 174.802 19.6108C168.836 19.6108 163.675 20.5578 159.319 22.4517C154.963 24.2983 151.578 26.8551 149.163 30.1222C146.795 33.3419 145.612 37.0114 145.612 41.1307C145.612 44.5871 146.417 47.5701 148.026 50.0795C149.684 52.589 151.838 54.696 154.489 56.4006C157.188 58.0578 160.077 59.4545 163.154 60.5909C166.232 61.6799 169.191 62.5795 172.032 63.2898L186.237 66.983C190.877 68.1193 195.635 69.6581 200.512 71.5994C205.389 73.5407 209.911 76.0975 214.078 79.2699C218.244 82.4422 221.606 86.3722 224.163 91.0597C226.767 95.7472 228.069 101.358 228.069 107.892C228.069 116.131 225.938 123.446 221.677 129.838C217.463 136.23 211.331 141.273 203.282 144.966C195.28 148.659 185.597 150.506 174.234 150.506C163.344 150.506 153.921 148.777 145.967 145.321C138.012 141.865 131.786 136.964 127.288 130.619C122.79 124.227 120.304 116.652 119.83 107.892H141.847C142.274 113.148 143.978 117.527 146.961 121.031C149.991 124.488 153.85 127.068 158.538 128.773C163.273 130.43 168.457 131.259 174.092 131.259C180.294 131.259 185.811 130.288 190.64 128.347C195.517 126.358 199.352 123.612 202.146 120.108C204.939 116.557 206.336 112.414 206.336 107.679C206.336 103.37 205.105 99.8428 202.643 97.0966C200.228 94.3504 196.937 92.0777 192.771 90.2784C188.651 88.4792 183.988 86.893 178.779 85.5199L161.592 80.8324C149.944 77.66 140.711 72.9962 133.893 66.8409C127.122 60.6856 123.737 52.5417 123.737 42.4091C123.737 34.0284 126.009 26.7131 130.555 20.4631C135.1 14.2131 141.256 9.35985 149.021 5.90341C156.786 2.39962 165.545 0.647725 175.299 0.647725C185.148 0.647725 193.836 2.37595 201.364 5.83239C208.94 9.28883 214.906 14.0473 219.262 20.1079C223.618 26.1212 225.891 33.0341 226.08 40.8466H204.916ZM347.492 85.1648L253.174 130.903V109.17L322.777 77.4943L322.066 78.7017V75.6477L322.777 76.9261L253.174 45.179V23.517L347.492 69.2557V85.1648Z" fill="#F2630D"/>
</svg>
